<svg viewBox="0 0 800 450" xmlns="http://www.w3.org/2000/svg" font-family="ui-sans-serif,system-ui,sans-serif">
  <rect width="800" height="450" fill="#F0F0EE"/>
  <!-- Desktop browser frame -->
  <rect x="80" y="20" width="640" height="410" rx="8" fill="#FFFFFF" stroke="#D0D0CE" stroke-width="1"/>
  <!-- Browser chrome -->
  <rect x="80" y="20" width="640" height="36" rx="8" fill="#E8E8E6"/>
  <rect x="80" y="44" width="640" height="12" fill="#E8E8E6"/>
  <circle cx="98" cy="38" r="6" fill="#FF6B6B" opacity="0.8"/>
  <circle cx="116" cy="38" r="6" fill="#FFD93D" opacity="0.8"/>
  <circle cx="134" cy="38" r="6" fill="#6BCB77" opacity="0.8"/>
  <rect x="150" y="28" width="400" height="20" rx="4" fill="#FFFFFF"/>
  <text x="350" y="42" fill="#9B9B9B" font-size="10" text-anchor="middle">app.pygmalios.com/analytics/dashboard</text>
  <!-- Web app content -->
  <rect x="80" y="56" width="640" height="374" fill="#F9F9F7"/>
  <!-- Old web header -->
  <rect x="80" y="56" width="640" height="48" fill="#1A1A2E"/>
  <text x="96" y="77" fill="#FFFFFF" font-size="13" font-weight="700">Pygmalios Analytics</text>
  <text x="96" y="95" fill="#8888AA" font-size="10">Centrum Bratislava — all floors</text>
  <text x="630" y="82" fill="#6666AA" font-size="10">Export CSV</text>
  <text x="670" y="82" fill="#6666AA" font-size="10">Help</text>
  <!-- Date range picker (complex) -->
  <rect x="80" y="104" width="640" height="40" fill="#FFFFFF"/>
  <rect x="80" y="144" width="640" height="1" fill="#E8E8E8"/>
  <rect x="96" y="114" width="140" height="22" rx="3" fill="#F0F0EE" stroke="#E0E0DE" stroke-width="1"/>
  <text x="166" y="129" fill="#6B6B6B" font-size="10" text-anchor="middle">2023-09-06  →  2023-09-06</text>
  <rect x="244" y="114" width="80" height="22" rx="3" fill="#F0F0EE" stroke="#E0E0DE" stroke-width="1"/>
  <text x="284" y="129" fill="#6B6B6B" font-size="10" text-anchor="middle">Floor: All</text>
  <rect x="332" y="114" width="80" height="22" rx="3" fill="#F0F0EE" stroke="#E0E0DE" stroke-width="1"/>
  <text x="372" y="129" fill="#6B6B6B" font-size="10" text-anchor="middle">Zone: All</text>
  <rect x="420" y="114" width="80" height="22" rx="3" fill="#F0F0EE" stroke="#E0E0DE" stroke-width="1"/>
  <text x="460" y="129" fill="#6B6B6B" font-size="10" text-anchor="middle">Metric: ∨</text>
  <!-- Desktop metrics - desktop only, too wide for mobile -->
  <rect x="96" y="158" width="136" height="60" rx="4" fill="#FFFFFF" stroke="#E8E8E8" stroke-width="1"/>
  <text x="112" y="176" fill="#9B9B9B" font-size="8">Visitors</text>
  <text x="112" y="196" fill="#111111" font-size="18" font-weight="700">1,847</text>
  <text x="112" y="210" fill="#9B9B9B" font-size="8">↑ 14% vs last week</text>
  <rect x="240" y="158" width="136" height="60" rx="4" fill="#FFFFFF" stroke="#E8E8E8" stroke-width="1"/>
  <text x="256" y="176" fill="#9B9B9B" font-size="8">Avg Dwell Time</text>
  <text x="256" y="196" fill="#111111" font-size="18" font-weight="700">4:32</text>
  <text x="256" y="210" fill="#9B9B9B" font-size="8">↑ 22s vs last week</text>
  <rect x="384" y="158" width="136" height="60" rx="4" fill="#FFFFFF" stroke="#E8E8E8" stroke-width="1"/>
  <text x="400" y="176" fill="#9B9B9B" font-size="8">Conversion Rate</text>
  <text x="400" y="196" fill="#111111" font-size="18" font-weight="700">6.2%</text>
  <text x="400" y="210" fill="#9B9B9B" font-size="8">↓ 0.8pp vs last week</text>
  <rect x="528" y="158" width="176" height="60" rx="4" fill="#FFF8F0" stroke="#FFD0A0" stroke-width="1"/>
  <text x="544" y="176" fill="#CC8800" font-size="8" font-weight="600">Queue Alert</text>
  <text x="544" y="196" fill="#CC6600" font-size="11" font-weight="600">Checkout 3 — 12 people</text>
  <text x="544" y="210" fill="#CC8800" font-size="9">8 min estimated wait</text>
  <!-- Big data table (desktop-friendly, mobile disaster) -->
  <rect x="96" y="232" width="608" height="182" rx="4" fill="#FFFFFF" stroke="#E8E8E8" stroke-width="1"/>
  <rect x="96" y="232" width="608" height="28" fill="#F0F0EE" rx="4"/>
  <rect x="96" y="248" width="608" height="12" fill="#F0F0EE"/>
  <text x="112" y="251" fill="#6B6B6B" font-size="9" font-weight="600">Hour</text>
  <text x="200" y="251" fill="#6B6B6B" font-size="9" font-weight="600">Visitors</text>
  <text x="296" y="251" fill="#6B6B6B" font-size="9" font-weight="600">Dwell Avg</text>
  <text x="400" y="251" fill="#6B6B6B" font-size="9" font-weight="600">Conversion</text>
  <text x="504" y="251" fill="#6B6B6B" font-size="9" font-weight="600">Queue Events</text>
  <!-- Table rows -->
  <line x1="96" y1="274" x2="704" y2="274" stroke="#E8E8E8" stroke-width="1"/>
  <text x="112" y="270" fill="#333333" font-size="9">9:00 – 10:00</text>
  <text x="200" y="270" fill="#333333" font-size="9">142</text>
  <text x="296" y="270" fill="#333333" font-size="9">3:48</text>
  <text x="400" y="270" fill="#333333" font-size="9">5.6%</text>
  <text x="504" y="270" fill="#333333" font-size="9">0</text>
  <line x1="96" y1="288" x2="704" y2="288" stroke="#E8E8E8" stroke-width="1"/>
  <text x="112" y="284" fill="#333333" font-size="9">10:00 – 11:00</text>
  <text x="200" y="284" fill="#333333" font-size="9">287</text>
  <text x="296" y="284" fill="#333333" font-size="9">4:12</text>
  <text x="400" y="284" fill="#333333" font-size="9">6.1%</text>
  <text x="504" y="284" fill="#333333" font-size="9">1</text>
  <line x1="96" y1="302" x2="704" y2="302" stroke="#E8E8E8" stroke-width="1"/>
  <text x="112" y="298" fill="#333333" font-size="9">11:00 – 12:00</text>
  <text x="200" y="298" fill="#333333" font-size="9">341</text>
  <text x="296" y="298" fill="#333333" font-size="9">4:33</text>
  <text x="400" y="298" fill="#333333" font-size="9">7.2%</text>
  <text x="504" y="298" fill="#333333" font-size="9">2</text>
  <text x="300" y="388" fill="#9B9B9B" font-size="10" text-anchor="middle">… and 9 more rows · Download CSV for full data</text>
  <!-- Annotation: "No mobile app" -->
  <rect x="530" y="380" width="188" height="44" rx="4" fill="#FFF3F0" stroke="#FFCCCC" stroke-width="1"/>
  <text x="542" y="398" fill="#CC4422" font-size="10" font-weight="600">No mobile access</text>
  <text x="542" y="412" fill="#CC4422" font-size="9">Managers check this on laptops,</text>
  <text x="542" y="422" fill="#CC4422" font-size="9">only during office hours</text>
</svg>
