<svg viewBox="0 0 800 450" xmlns="http://www.w3.org/2000/svg" font-family="ui-sans-serif,system-ui,sans-serif">
  <rect width="800" height="450" fill="#1A1A1A"/>
  <!-- Background context: person walking in store -->
  <!-- Phone 1: single store view -->
  <rect x="60" y="24" width="200" height="402" rx="20" fill="#111111" stroke="#333333" stroke-width="2"/>
  <rect x="68" y="36" width="184" height="378" rx="14" fill="#131320"/>
  <!-- Status bar -->
  <text x="80" y="54" fill="#888888" font-size="8">9:41</text>
  <text x="236" y="54" fill="#888888" font-size="8" text-anchor="end">●●●  WiFi  🔋</text>
  <!-- Store header -->
  <text x="160" y="78" fill="#FFFFFF" font-size="12" font-weight="700" text-anchor="middle">Centrum BA · F2</text>
  <text x="160" y="94" fill="#888888" font-size="9" text-anchor="middle">Today · Live</text>
  <circle cx="238" cy="82" r="5" fill="#22C55E"/>
  <!-- Main metric -->
  <rect x="80" y="104" width="164" height="64" rx="8" fill="#1A1A2E"/>
  <text x="96" y="122" fill="#888888" font-size="8" letter-spacing="0.05em">VISITORS TODAY</text>
  <text x="96" y="148" fill="#FFFFFF" font-size="28" font-weight="700">1,847</text>
  <text x="96" y="162" fill="#4ADE80" font-size="9">↑ 14% vs last Tuesday</text>
  <!-- Mini metrics row -->
  <rect x="80" y="178" width="76" height="48" rx="6" fill="#1A1A2E"/>
  <text x="88" y="196" fill="#888888" font-size="7" letter-spacing="0.04em">CONVERSION</text>
  <text x="88" y="212" fill="#FFFFFF" font-size="16" font-weight="700">6.2%</text>
  <text x="88" y="222" fill="#EF4444" font-size="8">↓ 0.8pp</text>
  <rect x="166" y="178" width="78" height="48" rx="6" fill="#1A1A2E"/>
  <text x="174" y="196" fill="#888888" font-size="7" letter-spacing="0.04em">DWELL TIME</text>
  <text x="174" y="212" fill="#FFFFFF" font-size="16" font-weight="700">4:32</text>
  <text x="174" y="222" fill="#4ADE80" font-size="8">↑ 22s</text>
  <!-- Alert card -->
  <rect x="80" y="236" width="164" height="52" rx="6" fill="#2A1010" stroke="#EF4444" stroke-width="1"/>
  <text x="92" y="254" fill="#EF4444" font-size="9" font-weight="700">⚠  Queue Alert</text>
  <text x="92" y="270" fill="#FF8888" font-size="10" font-weight="600">Checkout 3 · 12 people</text>
  <text x="92" y="282" fill="#CC6666" font-size="8">8 min wait · Act now</text>
  <!-- Mini bar chart -->
  <rect x="80" y="298" width="164" height="72" rx="6" fill="#1A1A2E"/>
  <text x="92" y="314" fill="#888888" font-size="8">VISITORS BY HOUR</text>
  <!-- Bars -->
  <rect x="90" y="350" width="9" height="14" rx="1" fill="#3A3A60"/>
  <rect x="102" y="344" width="9" height="20" rx="1" fill="#4444AA"/>
  <rect x="114" y="336" width="9" height="28" rx="1" fill="#5555CC"/>
  <rect x="126" y="330" width="9" height="34" rx="1" fill="#5555CC"/>
  <rect x="138" y="338" width="9" height="26" rx="1" fill="#4444AA"/>
  <rect x="150" y="326" width="9" height="38" rx="1" fill="#6666EE"/>
  <rect x="162" y="318" width="9" height="46" rx="1" fill="#7777EE"/>
  <rect x="174" y="322" width="9" height="42" rx="1" fill="#6666EE"/>
  <rect x="186" y="334" width="9" height="30" rx="1" fill="#4444AA"/>
  <rect x="198" y="344" width="9" height="20" rx="1" fill="#3A3A60"/>
  <!-- Nav bar -->
  <rect x="68" y="388" width="184" height="26" fill="#0D0D1A"/>
  <text x="100" y="405" fill="#7777EE" font-size="18" text-anchor="middle">⊞</text>
  <text x="140" y="405" fill="#4A4A70" font-size="16" text-anchor="middle">📊</text>
  <text x="180" y="405" fill="#4A4A70" font-size="16" text-anchor="middle">⚙</text>
  <!-- Phone 2: area manager view (larger) -->
  <rect x="310" y="24" width="220" height="402" rx="20" fill="#111111" stroke="#333333" stroke-width="2"/>
  <rect x="318" y="36" width="204" height="378" rx="14" fill="#131320"/>
  <!-- Status bar -->
  <text x="330" y="54" fill="#888888" font-size="8">9:41</text>
  <text x="510" y="54" fill="#888888" font-size="8" text-anchor="end">●●●  WiFi  🔋</text>
  <!-- Header -->
  <text x="420" y="78" fill="#FFFFFF" font-size="12" font-weight="700" text-anchor="middle">My Stores</text>
  <text x="420" y="94" fill="#888888" font-size="9" text-anchor="middle">4 stores · Today</text>
  <text x="500" y="78" fill="#7777EE" font-size="10">Sort ∨</text>
  <!-- Store cards grid -->
  <rect x="326" y="106" width="92" height="96" rx="8" fill="#1A1A2E" stroke="#22C55E" stroke-width="1.5"/>
  <text x="372" y="126" fill="#888888" font-size="7" text-anchor="middle" letter-spacing="0.04em">CENTRUM BA</text>
  <text x="372" y="148" fill="#FFFFFF" font-size="20" font-weight="700" text-anchor="middle">1,847</text>
  <text x="372" y="164" fill="#4ADE80" font-size="9" text-anchor="middle">↑ 14%</text>
  <text x="372" y="180" fill="#888888" font-size="8" text-anchor="middle">6.2% conv</text>
  <text x="372" y="194" fill="#888888" font-size="8" text-anchor="middle">⚠ Queue alert</text>
  <rect x="426" y="106" width="92" height="96" rx="8" fill="#1A1A2E"/>
  <text x="472" y="126" fill="#888888" font-size="7" text-anchor="middle" letter-spacing="0.04em">AUPARK KE</text>
  <text x="472" y="148" fill="#FFFFFF" font-size="20" font-weight="700" text-anchor="middle">1,203</text>
  <text x="472" y="164" fill="#CCCCEE" font-size="9" text-anchor="middle">+2%</text>
  <text x="472" y="180" fill="#888888" font-size="8" text-anchor="middle">7.1% conv</text>
  <text x="472" y="194" fill="#4ADE80" font-size="8" text-anchor="middle">All clear</text>
  <rect x="326" y="210" width="92" height="96" rx="8" fill="#1A1A2E"/>
  <text x="372" y="230" fill="#888888" font-size="7" text-anchor="middle" letter-spacing="0.04em">VIVO BA</text>
  <text x="372" y="252" fill="#FFFFFF" font-size="20" font-weight="700" text-anchor="middle">892</text>
  <text x="372" y="268" fill="#EF4444" font-size="9" text-anchor="middle">↓ 8%</text>
  <text x="372" y="284" fill="#888888" font-size="8" text-anchor="middle">5.4% conv</text>
  <text x="372" y="298" fill="#888888" font-size="8" text-anchor="middle">All clear</text>
  <rect x="426" y="210" width="92" height="96" rx="8" fill="#1A1A2E"/>
  <text x="472" y="230" fill="#888888" font-size="7" text-anchor="middle" letter-spacing="0.04em">FORUM PP</text>
  <text x="472" y="252" fill="#FFFFFF" font-size="20" font-weight="700" text-anchor="middle">1,104</text>
  <text x="472" y="268" fill="#CCCCEE" font-size="9" text-anchor="middle">+5%</text>
  <text x="472" y="284" fill="#888888" font-size="8" text-anchor="middle">6.8% conv</text>
  <text x="472" y="298" fill="#4ADE80" font-size="8" text-anchor="middle">All clear</text>
  <!-- Total summary -->
  <rect x="326" y="316" width="192" height="52" rx="6" fill="#0F0F1E" stroke="#333355" stroke-width="1"/>
  <text x="422" y="336" fill="#888888" font-size="9" font-weight="600" text-anchor="middle">PORTFOLIO TOTAL</text>
  <text x="422" y="356" fill="#FFFFFF" font-size="18" font-weight="700" text-anchor="middle">5,046 visitors</text>
  <text x="422" y="370" fill="#4ADE80" font-size="9" text-anchor="middle">+7% vs last Tuesday average</text>
  <!-- Nav bar -->
  <rect x="318" y="388" width="204" height="26" fill="#0D0D1A"/>
  <text x="362" y="405" fill="#4A4A70" font-size="16" text-anchor="middle">⊞</text>
  <text x="420" y="405" fill="#7777EE" font-size="18" text-anchor="middle">🏪</text>
  <text x="476" y="405" fill="#4A4A70" font-size="16" text-anchor="middle">⚙</text>
  <!-- Push notification floating -->
  <rect x="545" y="60" width="220" height="72" rx="12" fill="#FFFFFF" stroke="#E0E0DE" stroke-width="1"/>
  <rect x="557" y="72" width="28" height="28" rx="6" fill="#131320"/>
  <text x="571" y="91" fill="#7777EE" font-size="12" font-weight="700" text-anchor="middle">P</text>
  <text x="593" y="80" fill="#111111" font-size="10" font-weight="700">Pygmalios Alert</text>
  <text x="593" y="94" fill="#6B6B6B" font-size="9">Checkout 3 · Centrum BA</text>
  <text x="593" y="108" fill="#CC4422" font-size="9" font-weight="600">12 people in queue · 8 min wait</text>
  <text x="750" y="75" fill="#9B9B9B" font-size="9">now</text>
  <!-- Labels -->
  <text x="160" y="442" fill="#555555" font-size="10" text-anchor="middle">Single-store view</text>
  <text x="420" y="442" fill="#555555" font-size="10" text-anchor="middle">Area manager view (4 stores)</text>
  <text x="655" y="100" fill="#555555" font-size="10" text-anchor="middle">Push notification</text>
</svg>
