<svg viewBox="0 0 800 450" xmlns="http://www.w3.org/2000/svg" font-family="ui-sans-serif,system-ui,sans-serif">
  <rect width="800" height="450" fill="#131320"/>
  <!-- Left sidebar nav -->
  <rect width="64" height="450" fill="#0D0D1A"/>
  <rect x="64" y="0" width="1" height="450" fill="#222236"/>
  <circle cx="32" cy="40" r="16" fill="#222236"/>
  <text x="32" y="46" fill="#8888CC" font-size="11" font-weight="700" text-anchor="middle">P</text>
  <rect x="12" y="76" width="40" height="40" rx="8" fill="#2A2A44"/>
  <text x="32" y="101" fill="#FFFFFF" font-size="16" text-anchor="middle">⊞</text>
  <rect x="12" y="128" width="40" height="40" rx="8" fill="transparent"/>
  <text x="32" y="153" fill="#4A4A70" font-size="16" text-anchor="middle">📊</text>
  <rect x="12" y="180" width="40" height="40" rx="8" fill="transparent"/>
  <text x="32" y="205" fill="#4A4A70" font-size="16" text-anchor="middle">👤</text>
  <rect x="12" y="232" width="40" height="40" rx="8" fill="transparent"/>
  <text x="32" y="257" fill="#4A4A70" font-size="16" text-anchor="middle">⚙</text>
  <!-- Store selector header -->
  <rect x="65" y="0" width="735" height="52" fill="#0F0F1E"/>
  <rect x="65" y="52" width="735" height="1" fill="#222236"/>
  <text x="84" y="24" fill="#888888" font-size="10" font-weight="600" letter-spacing="0.06em">STORE</text>
  <text x="84" y="42" fill="#FFFFFF" font-size="16" font-weight="700">Centrum Bratislava — Floor 2</text>
  <rect x="620" y="14" width="80" height="24" rx="4" fill="#222236"/>
  <text x="660" y="30" fill="#8888AA" font-size="10" text-anchor="middle">Today ∨</text>
  <rect x="708" y="14" width="80" height="24" rx="4" fill="#222236"/>
  <text x="748" y="30" fill="#8888AA" font-size="10" text-anchor="middle">Compare ∨</text>
  <!-- Live badge -->
  <circle cx="590" cy="26" r="5" fill="#22C55E"/>
  <text x="600" y="30" fill="#22C55E" font-size="10" font-weight="600">Live</text>
  <!-- Main content grid -->
  <!-- KPI row -->
  <rect x="84" y="72" width="162" height="84" rx="6" fill="#1A1A2E"/>
  <text x="100" y="96" fill="#888888" font-size="9" font-weight="600" letter-spacing="0.05em">VISITORS TODAY</text>
  <text x="100" y="128" fill="#FFFFFF" font-size="32" font-weight="700">1,847</text>
  <text x="100" y="148" fill="#4ADE80" font-size="10">↑ 14% vs last Tuesday</text>
  <rect x="258" y="72" width="162" height="84" rx="6" fill="#1A1A2E"/>
  <text x="274" y="96" fill="#888888" font-size="9" font-weight="600" letter-spacing="0.05em">CONVERSION</text>
  <text x="274" y="128" fill="#FFFFFF" font-size="32" font-weight="700">6.2%</text>
  <text x="274" y="148" fill="#EF4444" font-size="10">↓ 0.8pp vs last Tuesday</text>
  <rect x="432" y="72" width="162" height="84" rx="6" fill="#1A1A2E"/>
  <text x="448" y="96" fill="#888888" font-size="9" font-weight="600" letter-spacing="0.05em">AVG DWELL TIME</text>
  <text x="448" y="128" fill="#FFFFFF" font-size="32" font-weight="700">4:32</text>
  <text x="448" y="148" fill="#4ADE80" font-size="10">↑ 22s vs last Tuesday</text>
  <rect x="606" y="72" width="175" height="84" rx="6" fill="#1A1A2E" stroke="#EF4444" stroke-width="1.5"/>
  <text x="622" y="96" fill="#EF4444" font-size="9" font-weight="600" letter-spacing="0.05em">QUEUE ALERT</text>
  <text x="622" y="122" fill="#FFFFFF" font-size="20" font-weight="700">Checkout 3</text>
  <text x="622" y="140" fill="#FF8888" font-size="11">12 people · 8 min wait</text>
  <text x="622" y="154" fill="#4A4A70" font-size="9">Triggered 4 min ago</text>
  <!-- Hourly traffic chart -->
  <rect x="84" y="168" width="480" height="176" rx="6" fill="#1A1A2E"/>
  <text x="100" y="192" fill="#888888" font-size="9" font-weight="600" letter-spacing="0.05em">VISITORS BY HOUR</text>
  <!-- Chart bars -->
  <text x="108" y="332" fill="#555580" font-size="8">8am</text>
  <text x="142" y="332" fill="#555580" font-size="8">9</text>
  <text x="162" y="332" fill="#555580" font-size="8">10</text>
  <text x="182" y="332" fill="#555580" font-size="8">11</text>
  <text x="202" y="332" fill="#555580" font-size="8">12</text>
  <text x="222" y="332" fill="#555580" font-size="8">1pm</text>
  <text x="248" y="332" fill="#555580" font-size="8">2</text>
  <text x="268" y="332" fill="#555580" font-size="8">3</text>
  <text x="288" y="332" fill="#555580" font-size="8">4</text>
  <text x="308" y="332" fill="#555580" font-size="8">5</text>
  <text x="328" y="332" fill="#555580" font-size="8">6</text>
  <text x="348" y="332" fill="#555580" font-size="8">7</text>
  <text x="368" y="332" fill="#555580" font-size="8">8</text>
  <!-- Bars at varying heights -->
  <rect x="104" y="296" width="18" height="28" rx="2" fill="#3A3A60"/>
  <rect x="126" y="280" width="18" height="44" rx="2" fill="#4444AA"/>
  <rect x="148" y="258" width="18" height="66" rx="2" fill="#5555CC"/>
  <rect x="170" y="248" width="18" height="76" rx="2" fill="#5555CC"/>
  <rect x="192" y="272" width="18" height="52" rx="2" fill="#4444AA"/>
  <rect x="214" y="286" width="18" height="38" rx="2" fill="#3A3A60"/>
  <rect x="236" y="270" width="18" height="54" rx="2" fill="#4444AA"/>
  <rect x="258" y="256" width="18" height="68" rx="2" fill="#5555CC"/>
  <rect x="280" y="240" width="18" height="84" rx="2" fill="#6666EE"/>
  <rect x="302" y="228" width="18" height="96" rx="2" fill="#7777EE"/>
  <rect x="324" y="234" width="18" height="90" rx="2" fill="#6666EE"/>
  <rect x="346" y="252" width="18" height="72" rx="2" fill="#5555CC"/>
  <rect x="368" y="268" width="18" height="56" rx="2" fill="#4444AA"/>
  <rect x="390" y="282" width="18" height="42" rx="2" fill="#3A3A60"/>
  <rect x="412" y="294" width="18" height="30" rx="2" fill="#3A3A60"/>
  <rect x="434" y="302" width="18" height="22" rx="2" fill="#333358"/>
  <!-- Current time marker -->
  <line x1="302" y1="200" x2="302" y2="324" stroke="#7777EE" stroke-width="1" stroke-dasharray="3,2" opacity="0.6"/>
  <text x="302" y="208" fill="#7777EE" font-size="8" text-anchor="middle">NOW</text>
  <!-- Right panel: zone breakdown -->
  <rect x="576" y="168" width="205" height="176" rx="6" fill="#1A1A2E"/>
  <text x="592" y="192" fill="#888888" font-size="9" font-weight="600" letter-spacing="0.05em">ZONES</text>
  <text x="592" y="214" fill="#CCCCEE" font-size="11" font-weight="600">Entrance</text>
  <rect x="670" y="204" width="100" height="8" rx="4" fill="#333355"/>
  <rect x="670" y="204" width="82" height="8" rx="4" fill="#6666EE"/>
  <text x="775" y="213" fill="#8888CC" font-size="9" text-anchor="end">82%</text>
  <text x="592" y="234" fill="#CCCCEE" font-size="11" font-weight="600">Menswear</text>
  <rect x="670" y="224" width="100" height="8" rx="4" fill="#333355"/>
  <rect x="670" y="224" width="58" height="8" rx="4" fill="#4444AA"/>
  <text x="775" y="233" fill="#8888CC" font-size="9" text-anchor="end">58%</text>
  <text x="592" y="254" fill="#CCCCEE" font-size="11" font-weight="600">Checkout</text>
  <rect x="670" y="244" width="100" height="8" rx="4" fill="#333355"/>
  <rect x="670" y="244" width="90" height="8" rx="4" fill="#EF4444" opacity="0.8"/>
  <text x="775" y="253" fill="#EF8888" font-size="9" text-anchor="end">90% ⚠</text>
  <text x="592" y="274" fill="#CCCCEE" font-size="11" font-weight="600">Womenswear</text>
  <rect x="670" y="264" width="100" height="8" rx="4" fill="#333355"/>
  <rect x="670" y="264" width="44" height="8" rx="4" fill="#4444AA"/>
  <text x="775" y="273" fill="#8888CC" font-size="9" text-anchor="end">44%</text>
  <text x="592" y="294" fill="#CCCCEE" font-size="11" font-weight="600">Food &amp; Drink</text>
  <rect x="670" y="284" width="100" height="8" rx="4" fill="#333355"/>
  <rect x="670" y="284" width="66" height="8" rx="4" fill="#4444AA"/>
  <text x="775" y="293" fill="#8888CC" font-size="9" text-anchor="end">66%</text>
  <text x="592" y="314" fill="#CCCCEE" font-size="11" font-weight="600">Exit</text>
  <rect x="670" y="304" width="100" height="8" rx="4" fill="#333355"/>
  <rect x="670" y="304" width="78" height="8" rx="4" fill="#4444AA"/>
  <text x="775" y="313" fill="#8888CC" font-size="9" text-anchor="end">78%</text>
  <!-- Bottom: store comparison strip -->
  <rect x="84" y="356" width="697" height="78" rx="6" fill="#1A1A2E"/>
  <text x="100" y="378" fill="#888888" font-size="9" font-weight="600" letter-spacing="0.05em">STORE COMPARISON — TODAY</text>
  <rect x="100" y="386" width="136" height="36" rx="4" fill="#222236"/>
  <text x="116" y="400" fill="#CCCCEE" font-size="9" font-weight="600">Centrum BA · F2</text>
  <text x="116" y="414" fill="#4ADE80" font-size="11" font-weight="600">1,847  ↑</text>
  <rect x="244" y="386" width="136" height="36" rx="4" fill="#222236"/>
  <text x="260" y="400" fill="#CCCCEE" font-size="9" font-weight="600">Aupark Košice</text>
  <text x="260" y="414" fill="#CCCCEE" font-size="11" font-weight="600">1,203</text>
  <rect x="388" y="386" width="136" height="36" rx="4" fill="#222236"/>
  <text x="404" y="400" fill="#CCCCEE" font-size="9" font-weight="600">OC Vivo Bratislava</text>
  <text x="404" y="414" fill="#EF4444" font-size="11" font-weight="600">892  ↓</text>
  <rect x="532" y="386" width="136" height="36" rx="4" fill="#222236"/>
  <text x="548" y="400" fill="#CCCCEE" font-size="9" font-weight="600">Forum Poprad</text>
  <text x="548" y="414" fill="#CCCCEE" font-size="11" font-weight="600">1,104</text>
  <rect x="676" y="386" width="90" height="36" rx="4" fill="#2A2A44" stroke="#4444AA" stroke-width="1" stroke-dasharray="3,2"/>
  <text x="721" y="408" fill="#6666AA" font-size="11" text-anchor="middle">+ Add store</text>
</svg>
