<svg viewBox="0 0 800 450" xmlns="http://www.w3.org/2000/svg" font-family="ui-sans-serif,system-ui,sans-serif">
  <!-- Background -->
  <rect width="800" height="450" fill="#0C0C18"/>
  <!-- Dot grid -->
  <defs>
    <pattern id="dots" x="0" y="0" width="24" height="24" patternUnits="userSpaceOnUse">
      <circle cx="12" cy="12" r="0.9" fill="#1E1E30"/>
    </pattern>
    <marker id="arr" markerWidth="7" markerHeight="7" refX="6" refY="3.5" orient="auto">
      <path d="M0,0 L0,7 L7,3.5 z" fill="#383860"/>
    </marker>
  </defs>
  <rect width="800" height="450" fill="url(#dots)"/>
  <!-- Top bar -->
  <rect width="800" height="46" fill="#11111E"/>
  <rect y="46" width="800" height="1" fill="#222236"/>
  <!-- Breadcrumb -->
  <rect x="16" y="15" width="56" height="16" rx="3" fill="#222236"/>
  <text x="44" y="27" fill="#4A4A70" font-size="9" text-anchor="middle" font-weight="600">Catalog</text>
  <text x="78" y="27" fill="#333355" font-size="10">/</text>
  <rect x="84" y="15" width="90" height="16" rx="3" fill="#222236"/>
  <text x="129" y="27" fill="#4A4A70" font-size="9" text-anchor="middle" font-weight="600">Data Assets</text>
  <text x="180" y="27" fill="#333355" font-size="10">/</text>
  <rect x="186" y="15" width="110" height="16" rx="3" fill="#2A2A44"/>
  <text x="241" y="27" fill="#8888CC" font-size="9" text-anchor="middle" font-weight="600">customer_360</text>
  <!-- Controls top-right -->
  <rect x="580" y="13" width="130" height="20" rx="4" fill="#191928" stroke="#252540" stroke-width="1"/>
  <circle cx="596" cy="23" r="5" fill="none" stroke="#383860" stroke-width="1.5"/>
  <line x1="600" y1="27" x2="603" y2="30" stroke="#383860" stroke-width="1.5"/>
  <text x="612" y="27" fill="#383860" font-size="9">Search lineage…</text>
  <rect x="722" y="13" width="30" height="20" rx="4" fill="#222236"/>
  <text x="737" y="26" fill="#4A4A70" font-size="10" text-anchor="middle">⊕</text>
  <rect x="758" y="13" width="30" height="20" rx="4" fill="#222236"/>
  <text x="773" y="26" fill="#4A4A70" font-size="10" text-anchor="middle">⊖</text>
  <!-- Left sidebar (icons only) -->
  <rect width="50" height="404" y="46" fill="#11111E"/>
  <rect x="50" y="46" width="1" height="404" fill="#222236"/>
  <circle cx="25" cy="82" r="10" fill="#222236"/>
  <circle cx="25" cy="114" r="10" fill="#2A2A44"/>
  <circle cx="25" cy="146" r="10" fill="#222236"/>
  <circle cx="25" cy="178" r="10" fill="#222236"/>
  <circle cx="25" cy="210" r="10" fill="#222236"/>

  <!-- NODES — positioned in DAG layout -->
  <!-- Col 1 sources: x=80 -->
  <!-- Node A: customers_raw (status: error) -->
  <g transform="translate(80,110)">
    <rect width="148" height="54" rx="6" fill="#15152A" stroke="#252540" stroke-width="1"/>
    <rect width="4" height="54" rx="2" fill="#EF4444"/>
    <text x="14" y="18" fill="#555580" font-size="8" font-weight="700" letter-spacing="0.06em">TABLE</text>
    <text x="14" y="34" fill="#CCCCEE" font-size="11" font-weight="600">customers_raw</text>
    <text x="14" y="47" fill="#555580" font-size="8">4.2M rows · DQ: 61%</text>
    <circle cx="131" cy="14" r="5" fill="#EF4444"/>
  </g>
  <!-- Node B: orders_raw (status: ok) -->
  <g transform="translate(80,220)">
    <rect width="148" height="54" rx="6" fill="#15152A" stroke="#252540" stroke-width="1"/>
    <rect width="4" height="54" rx="2" fill="#22C55E"/>
    <text x="14" y="18" fill="#555580" font-size="8" font-weight="700" letter-spacing="0.06em">TABLE</text>
    <text x="14" y="34" fill="#CCCCEE" font-size="11" font-weight="600">orders_raw</text>
    <text x="14" y="47" fill="#555580" font-size="8">12.7M rows · DQ: 98%</text>
    <circle cx="131" cy="14" r="5" fill="#22C55E"/>
  </g>
  <!-- Node C: products_db (status: ok) -->
  <g transform="translate(80,330)">
    <rect width="148" height="54" rx="6" fill="#15152A" stroke="#252540" stroke-width="1"/>
    <rect width="4" height="54" rx="2" fill="#22C55E"/>
    <text x="14" y="18" fill="#555580" font-size="8" font-weight="700" letter-spacing="0.06em">TABLE</text>
    <text x="14" y="34" fill="#CCCCEE" font-size="11" font-weight="600">products_db</text>
    <text x="14" y="47" fill="#555580" font-size="8">380K rows · DQ: 99%</text>
    <circle cx="131" cy="14" r="5" fill="#22C55E"/>
  </g>

  <!-- Col 2 transforms: x=305 -->
  <!-- Node D: cust_dq_check (status: warning) -->
  <g transform="translate(305,110)">
    <rect width="158" height="54" rx="6" fill="#15152A" stroke="#252540" stroke-width="1"/>
    <rect width="4" height="54" rx="2" fill="#EAB308"/>
    <text x="14" y="18" fill="#555580" font-size="8" font-weight="700" letter-spacing="0.06em">TRANSFORM</text>
    <text x="14" y="34" fill="#CCCCEE" font-size="11" font-weight="600">cust_dq_check</text>
    <text x="14" y="47" fill="#555580" font-size="8">DQ rule: 14 failures</text>
    <circle cx="141" cy="14" r="5" fill="#EAB308"/>
  </g>
  <!-- Node E: orders_enriched (status: ok) -->
  <g transform="translate(305,265)">
    <rect width="158" height="54" rx="6" fill="#15152A" stroke="#252540" stroke-width="1"/>
    <rect width="4" height="54" rx="2" fill="#22C55E"/>
    <text x="14" y="18" fill="#555580" font-size="8" font-weight="700" letter-spacing="0.06em">TRANSFORM</text>
    <text x="14" y="34" fill="#CCCCEE" font-size="11" font-weight="600">orders_enriched</text>
    <text x="14" y="47" fill="#555580" font-size="8">Joined · 12.7M rows</text>
    <circle cx="141" cy="14" r="5" fill="#22C55E"/>
  </g>

  <!-- Col 3 outputs: x=540 -->
  <!-- Node F: customer_360 (selected/highlighted) -->
  <g transform="translate(540,160)">
    <rect width="152" height="54" rx="6" fill="#161E16" stroke="#2A4A2A" stroke-width="1.5"/>
    <rect width="4" height="54" rx="2" fill="#22C55E"/>
    <text x="14" y="18" fill="#446644" font-size="8" font-weight="700" letter-spacing="0.06em">OUTPUT</text>
    <text x="14" y="34" fill="#CCEECC" font-size="11" font-weight="600">customer_360</text>
    <text x="14" y="47" fill="#446644" font-size="8">4.1M rows · DQ: 94%</text>
    <circle cx="135" cy="14" r="5" fill="#22C55E"/>
  </g>
  <!-- Node G: sales_report (status: ok) -->
  <g transform="translate(540,290)">
    <rect width="152" height="54" rx="6" fill="#15152A" stroke="#252540" stroke-width="1"/>
    <rect width="4" height="54" rx="2" fill="#22C55E"/>
    <text x="14" y="18" fill="#555580" font-size="8" font-weight="700" letter-spacing="0.06em">OUTPUT</text>
    <text x="14" y="34" fill="#CCCCEE" font-size="11" font-weight="600">sales_report</text>
    <text x="14" y="47" fill="#555580" font-size="8">Daily agg · 3.8K rows</text>
    <circle cx="135" cy="14" r="5" fill="#22C55E"/>
  </g>

  <!-- EDGES (node center connections) -->
  <!-- A → D -->
  <path d="M 228,137 C 260,137 272,137 305,137" stroke="#383860" stroke-width="1.5" fill="none" marker-end="url(#arr)"/>
  <!-- B → E -->
  <path d="M 228,247 C 260,247 272,292 305,292" stroke="#383860" stroke-width="1.5" fill="none" marker-end="url(#arr)"/>
  <!-- C → E -->
  <path d="M 228,357 C 260,357 272,312 305,312" stroke="#383860" stroke-width="1.5" fill="none" marker-end="url(#arr)"/>
  <!-- D → F -->
  <path d="M 463,137 C 496,137 508,187 540,187" stroke="#383860" stroke-width="1.5" fill="none" marker-end="url(#arr)"/>
  <!-- E → F -->
  <path d="M 463,292 C 496,292 508,212 540,212" stroke="#383860" stroke-width="1.5" fill="none" marker-end="url(#arr)"/>
  <!-- E → G -->
  <path d="M 463,292 C 496,292 508,317 540,317" stroke="#383860" stroke-width="1.5" fill="none" marker-end="url(#arr)"/>

  <!-- Right detail panel -->
  <rect x="710" y="47" width="90" height="403" fill="#11111E"/>
  <rect x="710" y="47" width="1" height="403" fill="#222236"/>
  <text x="755" y="80" fill="#555580" font-size="8" font-weight="700" letter-spacing="0.06em" text-anchor="middle">TABLE DETAIL</text>
  <rect x="720" y="90" width="70" height="1" fill="#222236"/>
  <text x="720" y="106" fill="#888890" font-size="8">Name</text>
  <text x="720" y="118" fill="#CCCCEE" font-size="9" font-weight="600">customer_360</text>
  <text x="720" y="136" fill="#888890" font-size="8">DQ Score</text>
  <rect x="720" y="142" width="70" height="8" rx="4" fill="#222236"/>
  <rect x="720" y="142" width="46" height="8" rx="4" fill="#22C55E" opacity="0.7"/>
  <text x="720" y="162" fill="#888890" font-size="8">Columns</text>
  <text x="720" y="174" fill="#CCCCEE" font-size="9" font-weight="600">47</text>
  <text x="720" y="192" fill="#888890" font-size="8">Rows</text>
  <text x="720" y="204" fill="#CCCCEE" font-size="9" font-weight="600">4.1M</text>
  <rect x="720" y="216" width="70" height="1" fill="#222236"/>
  <text x="720" y="232" fill="#555580" font-size="8" font-weight="700" letter-spacing="0.05em">UPSTREAM (2)</text>
  <rect x="720" y="238" width="70" height="20" rx="3" fill="#15152A" stroke="#252540" stroke-width="1"/>
  <text x="728" y="251" fill="#8888AA" font-size="8">cust_dq_check</text>
  <rect x="720" y="264" width="70" height="20" rx="3" fill="#15152A" stroke="#252540" stroke-width="1"/>
  <text x="728" y="277" fill="#8888AA" font-size="8">orders_enriched</text>
</svg>
