<svg viewBox="0 0 800 450" xmlns="http://www.w3.org/2000/svg" font-family="ui-sans-serif,system-ui,sans-serif">
  <rect width="800" height="450" fill="#F7F7F5"/>
  <!-- Top toolbar -->
  <rect width="800" height="50" fill="#FFFFFF"/>
  <rect y="50" width="800" height="1" fill="#E8E8E8"/>
  <rect x="16" y="14" width="22" height="22" rx="4" fill="#111111"/>
  <text x="27" y="29" fill="#FFFFFF" font-size="11" font-weight="700" text-anchor="middle">A</text>
  <text x="46" y="30" fill="#111111" font-size="12" font-weight="600">Data Stories</text>
  <text x="200" y="30" fill="#9B9B9B" font-size="12">Q3 Customer Report</text>
  <!-- Toolbar actions -->
  <rect x="472" y="14" width="60" height="22" rx="4" fill="#F0F0EE"/>
  <text x="502" y="29" fill="#6B6B6B" font-size="10" text-anchor="middle">Preview</text>
  <rect x="540" y="14" width="60" height="22" rx="4" fill="#F0F0EE"/>
  <text x="570" y="29" fill="#6B6B6B" font-size="10" text-anchor="middle">Share</text>
  <rect x="608" y="14" width="80" height="22" rx="4" fill="#111111"/>
  <text x="648" y="29" fill="#FFFFFF" font-size="10" text-anchor="middle">✓  Publish</text>
  <!-- Live indicator -->
  <circle cx="710" cy="25" r="4" fill="#22C55E"/>
  <text x="720" y="29" fill="#22C55E" font-size="10" font-weight="600">Live</text>
  <circle cx="760" cy="26" r="13" fill="#E8E8E8"/>
  <text x="760" y="31" fill="#555" font-size="10" text-anchor="middle" font-weight="600">JM</text>
  <!-- Left slide panel -->
  <rect x="0" y="51" width="180" height="399" fill="#FFFFFF"/>
  <rect x="180" y="51" width="1" height="399" fill="#E8E8E8"/>
  <text x="14" y="76" fill="#9B9B9B" font-size="10" font-weight="600" letter-spacing="0.06em">SLIDES (3)</text>
  <rect x="10" y="84" width="160" height="92" rx="4" fill="#111111" stroke="#111111" stroke-width="2"/>
  <rect x="18" y="94" width="70" height="8" rx="2" fill="#FFFFFF" opacity="0.25"/>
  <rect x="18" y="108" width="144" height="52" rx="2" fill="#FFFFFF" opacity="0.06"/>
  <rect x="22" y="114" width="40" height="36" rx="2" fill="#4ADE80" opacity="0.2"/>
  <rect x="66" y="114" width="40" height="36" rx="2" fill="#60A5FA" opacity="0.2"/>
  <rect x="110" y="114" width="44" height="36" rx="2" fill="#A78BFA" opacity="0.2"/>
  <text x="10" y="190" fill="#9B9B9B" font-size="9">1 · Overview</text>
  <rect x="10" y="198" width="160" height="92" rx="4" fill="#F9F9F7" stroke="#E8E8E8" stroke-width="1"/>
  <rect x="18" y="208" width="50" height="6" rx="2" fill="#E0E0DE"/>
  <rect x="18" y="220" width="144" height="52" rx="2" fill="#F0F0EE"/>
  <text x="10" y="304" fill="#9B9B9B" font-size="9">2 · Traffic Trends</text>
  <rect x="10" y="312" width="160" height="92" rx="4" fill="#F9F9F7" stroke="#E8E8E8" stroke-width="1"/>
  <rect x="18" y="322" width="50" height="6" rx="2" fill="#E0E0DE"/>
  <rect x="18" y="334" width="144" height="52" rx="2" fill="#F0F0EE"/>
  <text x="10" y="418" fill="#9B9B9B" font-size="9">3 · Conversion</text>
  <!-- Canvas area (dark surround) -->
  <rect x="181" y="51" width="476" height="399" fill="#3A3A3A"/>
  <!-- Selected block highlight glow -->
  <!-- Slide content (selected block: metric card) -->
  <rect x="214" y="74" width="410" height="352" rx="6" fill="#111111"/>
  <!-- Slide title -->
  <text x="234" y="110" fill="#FFFFFF" font-size="18" font-weight="700">Q3 Customer Report</text>
  <text x="234" y="128" fill="#555555" font-size="10">Auto-updated · Last sync: 3 min ago</text>
  <rect x="234" y="136" width="370" height="1" fill="#333333"/>
  <!-- Metric cards (one selected with edit handles) -->
  <rect x="234" y="148" width="110" height="58" rx="4" fill="#1A1A1A" stroke="#4444EE" stroke-width="2"/>
  <!-- Selection handles on this block -->
  <rect x="231" y="145" width="8" height="8" rx="1" fill="#4444EE"/>
  <rect x="338" y="145" width="8" height="8" rx="1" fill="#4444EE"/>
  <rect x="231" y="198" width="8" height="8" rx="1" fill="#4444EE"/>
  <rect x="338" y="198" width="8" height="8" rx="1" fill="#4444EE"/>
  <text x="244" y="167" fill="#888888" font-size="8" font-weight="600" letter-spacing="0.05em">TOTAL RECORDS</text>
  <text x="244" y="188" fill="#FFFFFF" font-size="20" font-weight="700">4.1M</text>
  <text x="244" y="202" fill="#4ADE80" font-size="9">↑ 12%</text>
  <rect x="354" y="148" width="110" height="58" rx="4" fill="#1A1A1A"/>
  <text x="364" y="167" fill="#888888" font-size="8" font-weight="600" letter-spacing="0.05em">DQ SCORE</text>
  <text x="364" y="188" fill="#FFFFFF" font-size="20" font-weight="700">94%</text>
  <text x="364" y="202" fill="#4ADE80" font-size="9">↑ 3pp</text>
  <rect x="474" y="148" width="110" height="58" rx="4" fill="#1A1A1A"/>
  <text x="484" y="167" fill="#888888" font-size="8" font-weight="600" letter-spacing="0.05em">OPEN ISSUES</text>
  <text x="484" y="188" fill="#FFFFFF" font-size="20" font-weight="700">14</text>
  <text x="484" y="202" fill="#EF4444" font-size="9">↑ 2 new</text>
  <!-- Chart block -->
  <rect x="234" y="220" width="350" height="100" rx="4" fill="#1A1A1A"/>
  <text x="244" y="238" fill="#888888" font-size="8" font-weight="600" letter-spacing="0.05em">RECORDS BY MONTH</text>
  <rect x="254" y="294" width="24" height="18" rx="2" fill="#60A5FA"/>
  <rect x="284" y="282" width="24" height="30" rx="2" fill="#60A5FA"/>
  <rect x="314" y="270" width="24" height="42" rx="2" fill="#60A5FA"/>
  <rect x="344" y="258" width="24" height="54" rx="2" fill="#4ADE80"/>
  <rect x="374" y="276" width="24" height="36" rx="2" fill="#60A5FA"/>
  <rect x="404" y="286" width="24" height="26" rx="2" fill="#60A5FA"/>
  <rect x="434" y="262" width="24" height="50" rx="2" fill="#60A5FA"/>
  <rect x="464" y="272" width="24" height="40" rx="2" fill="#60A5FA"/>
  <rect x="494" y="252" width="24" height="60" rx="2" fill="#4ADE80"/>
  <text x="234" y="340" fill="#555555" font-size="9">🔗  Share: ataccama.io/stories/q3-2023   ·   Updated automatically</text>
  <!-- Right panel: block inspector -->
  <rect x="657" y="51" width="143" height="399" fill="#FFFFFF"/>
  <rect x="657" y="51" width="1" height="399" fill="#E8E8E8"/>
  <text x="672" y="76" fill="#9B9B9B" font-size="10" font-weight="600" letter-spacing="0.06em">BLOCK SETTINGS</text>
  <rect x="672" y="84" width="112" height="1" fill="#E8E8E8"/>
  <text x="672" y="102" fill="#9B9B9B" font-size="9" font-weight="600">Block type</text>
  <rect x="672" y="108" width="112" height="22" rx="4" fill="#F0F0EE"/>
  <text x="728" y="123" fill="#6B6B6B" font-size="10" text-anchor="middle">Metric (live)</text>
  <text x="672" y="148" fill="#9B9B9B" font-size="9" font-weight="600">Data source</text>
  <rect x="672" y="154" width="112" height="22" rx="4" fill="#F0F0EE"/>
  <text x="728" y="169" fill="#6B6B6B" font-size="10" text-anchor="middle">DQ Score · Ataccama</text>
  <text x="672" y="196" fill="#9B9B9B" font-size="9" font-weight="600">Metric</text>
  <rect x="672" y="202" width="112" height="22" rx="4" fill="#F0F0EE"/>
  <text x="728" y="217" fill="#6B6B6B" font-size="10" text-anchor="middle">Total records</text>
  <text x="672" y="244" fill="#9B9B9B" font-size="9" font-weight="600">Refresh rate</text>
  <rect x="672" y="250" width="112" height="22" rx="4" fill="#F0F0EE"/>
  <text x="728" y="265" fill="#6B6B6B" font-size="10" text-anchor="middle">Every 5 min</text>
  <rect x="672" y="290" width="112" height="1" fill="#E8E8E8"/>
  <text x="672" y="308" fill="#9B9B9B" font-size="9" font-weight="600">Style</text>
  <rect x="672" y="314" width="50" height="22" rx="4" fill="#111111"/>
  <rect x="728" y="314" width="56" height="22" rx="4" fill="#F0F0EE"/>
  <text x="697" y="329" fill="#FFFFFF" font-size="9" text-anchor="middle">Dark</text>
  <text x="756" y="329" fill="#6B6B6B" font-size="9" text-anchor="middle">Light</text>
  <text x="672" y="358" fill="#9B9B9B" font-size="9" font-weight="600">Trend indicator</text>
  <rect x="672" y="364" width="112" height="22" rx="4" fill="#F0F0EE"/>
  <text x="728" y="379" fill="#6B6B6B" font-size="10" text-anchor="middle">vs previous period</text>
</svg>
