<svg viewBox="0 0 800 450" xmlns="http://www.w3.org/2000/svg" font-family="ui-sans-serif,system-ui,sans-serif">
  <rect width="800" height="450" fill="#F7F7F5"/>
  <!-- Top bar -->
  <rect width="800" height="50" fill="#FFFFFF"/>
  <rect y="50" width="800" height="1" fill="#E8E8E8"/>
  <!-- Logo/brand -->
  <rect x="16" y="14" width="22" height="22" rx="4" fill="#111111"/>
  <text x="27" y="29" fill="#FFFFFF" font-size="11" font-weight="700" text-anchor="middle">A</text>
  <text x="46" y="30" fill="#111111" font-size="12" font-weight="600">Data Stories</text>
  <!-- Nav tabs -->
  <text x="160" y="30" fill="#9B9B9B" font-size="12">My stories</text>
  <text x="246" y="30" fill="#9B9B9B" font-size="12">Templates</text>
  <text x="340" y="30" fill="#9B9B9B" font-size="12">Shared</text>
  <!-- Top right -->
  <rect x="660" y="15" width="80" height="22" rx="4" fill="#111111"/>
  <text x="700" y="30" fill="#FFFFFF" font-size="11" font-weight="600" text-anchor="middle">+ New story</text>
  <circle cx="756" cy="26" r="13" fill="#E8E8E8"/>
  <text x="756" y="31" fill="#555" font-size="10" text-anchor="middle" font-weight="600">JM</text>
  <!-- Left sidebar: slide panel -->
  <rect x="0" y="51" width="200" height="399" fill="#FFFFFF"/>
  <rect x="200" y="51" width="1" height="399" fill="#E8E8E8"/>
  <!-- Slide list -->
  <text x="16" y="78" fill="#9B9B9B" font-size="10" font-weight="600" letter-spacing="0.06em">SLIDES</text>
  <!-- Slide thumb 1 (selected) -->
  <rect x="12" y="88" width="176" height="100" rx="4" fill="#111111" stroke="#111111" stroke-width="2"/>
  <rect x="20" y="98" width="80" height="10" rx="2" fill="#FFFFFF" opacity="0.2"/>
  <rect x="20" y="114" width="140" height="6" rx="2" fill="#FFFFFF" opacity="0.1"/>
  <rect x="20" y="124" width="100" height="6" rx="2" fill="#FFFFFF" opacity="0.1"/>
  <rect x="20" y="140" width="140" height="30" rx="3" fill="#FFFFFF" opacity="0.05"/>
  <rect x="20" y="145" width="60" height="20" rx="3" fill="#4ADE80" opacity="0.3"/>
  <rect x="84" y="145" width="76" height="20" rx="3" fill="#60A5FA" opacity="0.3"/>
  <text x="16" y="202" fill="#6B6B6B" font-size="9">Slide 1 · Overview</text>
  <!-- Slide thumb 2 -->
  <rect x="12" y="210" width="176" height="100" rx="4" fill="#F9F9F7" stroke="#E8E8E8" stroke-width="1"/>
  <rect x="20" y="220" width="60" height="8" rx="2" fill="#E0E0DE"/>
  <rect x="20" y="234" width="140" height="4" rx="2" fill="#E8E8E8"/>
  <rect x="20" y="242" width="100" height="4" rx="2" fill="#E8E8E8"/>
  <rect x="20" y="256" width="140" height="30" rx="3" fill="#F0F0EE"/>
  <text x="16" y="324" fill="#9B9B9B" font-size="9">Slide 2 · Traffic Trends</text>
  <!-- Slide thumb 3 -->
  <rect x="12" y="332" width="176" height="100" rx="4" fill="#F9F9F7" stroke="#E8E8E8" stroke-width="1"/>
  <rect x="20" y="342" width="60" height="8" rx="2" fill="#E0E0DE"/>
  <rect x="20" y="356" width="140" height="4" rx="2" fill="#E8E8E8"/>
  <rect x="20" y="364" width="140" height="50" rx="3" fill="#F0F0EE"/>
  <text x="16" y="446" fill="#9B9B9B" font-size="9">Slide 3 · Conversion</text>
  <!-- Main canvas / active slide -->
  <rect x="201" y="51" width="460" height="399" fill="#2A2A2A"/>
  <!-- Slide content -->
  <rect x="240" y="80" width="382" height="340" rx="4" fill="#111111"/>
  <!-- Slide header -->
  <text x="262" y="114" fill="#FFFFFF" font-size="20" font-weight="700">Q3 Customer Report</text>
  <text x="262" y="132" fill="#888888" font-size="11">September 2023 · Auto-updated · Live data</text>
  <rect x="262" y="140" width="340" height="1" fill="#333333"/>
  <!-- KPI cards row -->
  <rect x="262" y="152" width="104" height="56" rx="4" fill="#1A1A1A"/>
  <text x="272" y="170" fill="#888888" font-size="8" font-weight="600" letter-spacing="0.06em">TOTAL RECORDS</text>
  <text x="272" y="190" fill="#FFFFFF" font-size="22" font-weight="700">4.1M</text>
  <text x="272" y="204" fill="#4ADE80" font-size="9">↑ 12% vs Q2</text>
  <rect x="374" y="152" width="104" height="56" rx="4" fill="#1A1A1A"/>
  <text x="384" y="170" fill="#888888" font-size="8" font-weight="600" letter-spacing="0.06em">DQ SCORE</text>
  <text x="384" y="190" fill="#FFFFFF" font-size="22" font-weight="700">94%</text>
  <text x="384" y="204" fill="#4ADE80" font-size="9">↑ 3pp vs Q2</text>
  <rect x="486" y="152" width="114" height="56" rx="4" fill="#1A1A1A"/>
  <text x="496" y="170" fill="#888888" font-size="8" font-weight="600" letter-spacing="0.06em">OPEN ISSUES</text>
  <text x="496" y="190" fill="#FFFFFF" font-size="22" font-weight="700">14</text>
  <text x="496" y="204" fill="#EF4444" font-size="9">↑ 2 new this week</text>
  <!-- Bar chart -->
  <text x="262" y="228" fill="#888888" font-size="9" font-weight="600" letter-spacing="0.05em">RECORDS BY CATEGORY</text>
  <rect x="262" y="236" width="340" height="100" rx="3" fill="#1A1A1A"/>
  <!-- Bars -->
  <rect x="278" y="302" width="32" height="24" rx="2" fill="#60A5FA"/>
  <rect x="318" y="285" width="32" height="41" rx="2" fill="#60A5FA"/>
  <rect x="358" y="270" width="32" height="56" rx="2" fill="#60A5FA"/>
  <rect x="398" y="256" width="32" height="70" rx="2" fill="#4ADE80"/>
  <rect x="438" y="280" width="32" height="46" rx="2" fill="#60A5FA"/>
  <rect x="478" y="292" width="32" height="34" rx="2" fill="#60A5FA"/>
  <rect x="518" y="268" width="32" height="58" rx="2" fill="#60A5FA"/>
  <!-- X axis labels -->
  <text x="294" y="338" fill="#555555" font-size="8" text-anchor="middle">Mar</text>
  <text x="334" y="338" fill="#555555" font-size="8" text-anchor="middle">Apr</text>
  <text x="374" y="338" fill="#555555" font-size="8" text-anchor="middle">May</text>
  <text x="414" y="338" fill="#555555" font-size="8" text-anchor="middle">Jun</text>
  <text x="454" y="338" fill="#555555" font-size="8" text-anchor="middle">Jul</text>
  <text x="494" y="338" fill="#555555" font-size="8" text-anchor="middle">Aug</text>
  <text x="534" y="338" fill="#555555" font-size="8" text-anchor="middle">Sep</text>
  <!-- Sharing label -->
  <rect x="262" y="352" width="340" height="1" fill="#333333"/>
  <text x="262" y="370" fill="#555555" font-size="9">🔗  Share link: ataccama.io/stories/q3-report · Last updated 2 min ago</text>
  <!-- Right panel: block toolbar -->
  <rect x="661" y="51" width="139" height="399" fill="#FFFFFF"/>
  <rect x="661" y="51" width="1" height="399" fill="#E8E8E8"/>
  <text x="672" y="78" fill="#9B9B9B" font-size="10" font-weight="600" letter-spacing="0.06em">BLOCKS</text>
  <!-- Block types -->
  <rect x="672" y="88" width="116" height="36" rx="4" fill="#F7F7F5" stroke="#E8E8E8" stroke-width="1"/>
  <text x="684" y="111" fill="#6B6B6B" font-size="10">📊  Chart</text>
  <rect x="672" y="132" width="116" height="36" rx="4" fill="#111111" stroke="#111111" stroke-width="1"/>
  <text x="684" y="155" fill="#FFFFFF" font-size="10">🔢  Metric (live)</text>
  <rect x="672" y="176" width="116" height="36" rx="4" fill="#F7F7F5" stroke="#E8E8E8" stroke-width="1"/>
  <text x="684" y="199" fill="#6B6B6B" font-size="10">📝  Text</text>
  <rect x="672" y="220" width="116" height="36" rx="4" fill="#F7F7F5" stroke="#E8E8E8" stroke-width="1"/>
  <text x="684" y="243" fill="#6B6B6B" font-size="10">📋  Table</text>
  <rect x="672" y="264" width="116" height="36" rx="4" fill="#F7F7F5" stroke="#E8E8E8" stroke-width="1"/>
  <text x="684" y="287" fill="#6B6B6B" font-size="10">🔗  Divider</text>
  <text x="672" y="324" fill="#9B9B9B" font-size="10" font-weight="600" letter-spacing="0.06em">SELECTED</text>
  <rect x="672" y="332" width="116" height="80" rx="4" fill="#F7F7F5" stroke="#E8E8E8" stroke-width="1"/>
  <text x="684" y="350" fill="#9B9B9B" font-size="8" font-weight="600">Data source</text>
  <rect x="684" y="356" width="92" height="18" rx="3" fill="#E8E8E8"/>
  <text x="690" y="369" fill="#6B6B6B" font-size="9">DQ Score · Ataccama</text>
  <text x="684" y="390" fill="#9B9B9B" font-size="8" font-weight="600">Refresh</text>
  <text x="684" y="404" fill="#6B6B6B" font-size="9">Auto · every 5 min</text>
</svg>
