<svg viewBox="0 0 600 400" fill="none" xmlns="http://www.w3.org/2000/svg">
  <rect width="600" height="400" fill="#F2F2F0"/>

  <!-- Editor chrome top -->
  <rect width="600" height="44" fill="white" stroke="#E5E7EB" stroke-width="1"/>
  <rect x="16" y="13" width="80" height="18" rx="4" fill="#F3F4F6"/>
  <rect x="108" y="13" width="56" height="18" rx="4" fill="#F3F4F6"/>
  <rect x="176" y="13" width="56" height="18" rx="4" fill="#F3F4F6"/>
  <rect x="448" y="13" width="80" height="18" rx="6" fill="#7B6BAE"/>
  <text x="488" y="26" text-anchor="middle" font-family="-apple-system, BlinkMacSystemFont, sans-serif" font-size="12" font-weight="600" fill="white">Publish</text>

  <!-- Slide canvas -->
  <rect x="36" y="64" width="364" height="312" rx="8" fill="white" stroke="#E5E7EB" stroke-width="1"/>

  <!-- Slide title text -->
  <text x="64" y="104" font-family="-apple-system, BlinkMacSystemFont, sans-serif" font-size="18" font-weight="700" fill="#111827">Q4 Revenue by Region</text>

  <!-- Data source chip -->
  <rect x="64" y="112" width="140" height="20" rx="4" fill="#F3F4F6"/>
  <circle cx="76" cy="122" r="4" fill="#10B981"/>
  <text x="86" y="126" font-family="-apple-system, BlinkMacSystemFont, sans-serif" font-size="11" fill="#6B7280">orders · Q4 2023</text>

  <!-- Bar chart -->
  <rect x="72" y="222" width="40" height="114" rx="3" fill="#D8CCEF"/>
  <text x="92" y="216" text-anchor="middle" font-family="-apple-system, BlinkMacSystemFont, sans-serif" font-size="10" fill="#9CA3AF">$2.1M</text>
  <rect x="128" y="186" width="40" height="150" rx="3" fill="#7B6BAE"/>
  <text x="148" y="180" text-anchor="middle" font-family="-apple-system, BlinkMacSystemFont, sans-serif" font-size="10" fill="#7B6BAE">$2.8M</text>
  <rect x="184" y="206" width="40" height="130" rx="3" fill="#D8CCEF"/>
  <text x="204" y="200" text-anchor="middle" font-family="-apple-system, BlinkMacSystemFont, sans-serif" font-size="10" fill="#9CA3AF">$2.4M</text>
  <rect x="240" y="166" width="40" height="170" rx="3" fill="#7B6BAE"/>
  <text x="260" y="160" text-anchor="middle" font-family="-apple-system, BlinkMacSystemFont, sans-serif" font-size="10" fill="#7B6BAE">$3.2M</text>
  <rect x="296" y="194" width="40" height="142" rx="3" fill="#D8CCEF"/>
  <text x="316" y="188" text-anchor="middle" font-family="-apple-system, BlinkMacSystemFont, sans-serif" font-size="10" fill="#9CA3AF">$2.6M</text>

  <!-- X axis labels -->
  <text x="92" y="352" text-anchor="middle" font-family="-apple-system, BlinkMacSystemFont, sans-serif" font-size="10" fill="#9CA3AF">EMEA</text>
  <text x="148" y="352" text-anchor="middle" font-family="-apple-system, BlinkMacSystemFont, sans-serif" font-size="10" fill="#9CA3AF">NA</text>
  <text x="204" y="352" text-anchor="middle" font-family="-apple-system, BlinkMacSystemFont, sans-serif" font-size="10" fill="#9CA3AF">APAC</text>
  <text x="260" y="352" text-anchor="middle" font-family="-apple-system, BlinkMacSystemFont, sans-serif" font-size="10" fill="#9CA3AF">LATAM</text>
  <text x="316" y="352" text-anchor="middle" font-family="-apple-system, BlinkMacSystemFont, sans-serif" font-size="10" fill="#9CA3AF">MEA</text>

  <!-- Right properties panel -->
  <rect x="414" y="64" width="150" height="312" rx="8" fill="white" stroke="#E5E7EB" stroke-width="1"/>

  <text x="430" y="92" font-family="-apple-system, BlinkMacSystemFont, sans-serif" font-size="11" font-weight="600" fill="#9CA3AF">CHART TYPE</text>
  <rect x="430" y="100" width="118" height="30" rx="6" fill="#F3F4F6"/>
  <text x="489" y="120" text-anchor="middle" font-family="-apple-system, BlinkMacSystemFont, sans-serif" font-size="12" fill="#374151">Bar chart</text>

  <text x="430" y="152" font-family="-apple-system, BlinkMacSystemFont, sans-serif" font-size="11" font-weight="600" fill="#9CA3AF">DIMENSION</text>
  <rect x="430" y="160" width="118" height="30" rx="6" fill="#F3F4F6"/>
  <text x="489" y="180" text-anchor="middle" font-family="-apple-system, BlinkMacSystemFont, sans-serif" font-size="12" fill="#374151">region</text>

  <text x="430" y="212" font-family="-apple-system, BlinkMacSystemFont, sans-serif" font-size="11" font-weight="600" fill="#9CA3AF">METRIC</text>
  <rect x="430" y="220" width="118" height="30" rx="6" fill="#F3F4F6"/>
  <text x="489" y="240" text-anchor="middle" font-family="-apple-system, BlinkMacSystemFont, sans-serif" font-size="12" fill="#374151">SUM(amount)</text>

  <text x="430" y="272" font-family="-apple-system, BlinkMacSystemFont, sans-serif" font-size="11" font-weight="600" fill="#9CA3AF">COLOR</text>
  <circle cx="442" cy="292" r="10" fill="#7B6BAE"/>
  <circle cx="464" cy="292" r="10" fill="#D8CCEF"/>
  <circle cx="486" cy="292" r="10" fill="#F0D0B8"/>
  <circle cx="508" cy="292" r="10" fill="#F3F4F6" stroke="#E5E7EB" stroke-width="1"/>
  <text x="526" y="298" font-family="-apple-system, BlinkMacSystemFont, sans-serif" font-size="16" fill="#9CA3AF">+</text>
</svg>
